<svg id="Layer_1" data-name="Layer 1" xmlns="http://www.w3.org/2000/svg" viewBox="0 0 272.9 44.55"><path d="M27.39,11.64,19.84,44.12a.57.57,0,0,1-.55.43H6.69a.56.56,0,0,1-.55-.69l7.48-32.22H.57a.57.57,0,0,1-.56-.7L2.42.44A.55.55,0,0,1,3,0H43.1a.57.57,0,0,1,.55.69L41.25,11.2a.58.58,0,0,1-.55.44Z"/><path d="M82.08,23.08a19.56,19.56,0,0,1-9.41,6.45L80.89,43.7a.56.56,0,0,1-.49.85H66.49a.57.57,0,0,1-.5-.29l-7.41-13.4H54.85l-3,13.25a.57.57,0,0,1-.56.44H38.67a.57.57,0,0,1-.55-.69L48.1.44A.57.57,0,0,1,48.65,0h22q7,0,10.94,3.46a11.9,11.9,0,0,1,3.95,9.44A16.07,16.07,0,0,1,82.08,23.08ZM64.69,20.22a7.8,7.8,0,0,0,5-1.57,4.72,4.72,0,0,0,2-3.82,3.22,3.22,0,0,0-1.23-2.69,5.4,5.4,0,0,0-3.43-1H59.37l-2.06,9Z"/><path d="M119.83,44.05l-.67-5.55h-17l-3.43,5.78a.55.55,0,0,1-.48.27H84.34a.57.57,0,0,1-.48-.86L111.08.27a.57.57,0,0,1,.48-.27h14.7a.56.56,0,0,1,.56.48L134,43.89a.56.56,0,0,1-.56.66h-13A.57.57,0,0,1,119.83,44.05ZM116.3,14.43l-7.51,12.7h9Z"/><path d="M157.2,17.16h19.31a.56.56,0,0,1,.55.69L175,27a.58.58,0,0,1-.55.44H154.88l-1.34,5.78H175a.57.57,0,0,1,.56.7l-2.4,10.24a.57.57,0,0,1-.55.43H137.83a.57.57,0,0,1-.55-.69L147.33.44a.56.56,0,0,1,.55-.44h34.41a.57.57,0,0,1,.56.69l-2.34,10.24a.57.57,0,0,1-.55.44H158.53Z"/><path d="M207.88,0q9.51,0,15.23,5t5.71,13.67a24.27,24.27,0,0,1-8.11,18.29q-8.11,7.64-20.21,7.64H180a.57.57,0,0,1-.56-.69l7.49-32.42,2.56-11A.57.57,0,0,1,190,0Zm-8.25,32.78A15.7,15.7,0,0,0,210,29a11.71,11.71,0,0,0,4.52-9.31,7.78,7.78,0,0,0-2.4-6,9.56,9.56,0,0,0-6.71-2.19H200.7l-4.92,21.34Z"/><path d="M247.24,17.16h19.31a.56.56,0,0,1,.55.69L265,27a.58.58,0,0,1-.55.44H244.92l-1.33,5.78H265a.57.57,0,0,1,.55.7l-2.4,10.24a.57.57,0,0,1-.55.43H227.88a.57.57,0,0,1-.56-.69L237.37.44a.57.57,0,0,1,.55-.44h34.41a.57.57,0,0,1,.56.69l-2.34,10.24a.57.57,0,0,1-.55.44H248.57Z"/></svg>